<?xml version="1.0" encoding="UTF-8" standalone="no"?>
<svg
   version="1.0"
   viewBox="0 0 1024.000000 1024.000000"
   preserveAspectRatio="xMidYMid meet"
   id="svg25"
   sodipodi:docname="LunaGis logo.svg"
   inkscape:version="1.4.2 (f4327f4, 2025-05-13)"
   xmlns:inkscape="http://www.inkscape.org/namespaces/inkscape"
   xmlns:sodipodi="http://sodipodi.sourceforge.net/DTD/sodipodi-0.dtd"
   xmlns="http://www.w3.org/2000/svg"
   xmlns:svg="http://www.w3.org/2000/svg">
  <defs
     id="defs25">
    <rect
       x="460.06952"
       y="955.20208"
       width="805.38729"
       height="289.00441"
       id="rect25" />
  </defs>
  <sodipodi:namedview
     id="namedview25"
     pagecolor="#ffffff"
     bordercolor="#000000"
     borderopacity="0.25"
     inkscape:showpageshadow="2"
     inkscape:pageopacity="0.0"
     inkscape:pagecheckerboard="0"
     inkscape:deskcolor="#d1d1d1"
     inkscape:document-units="pt"
     showgrid="true"
     inkscape:zoom="0.94116211"
     inkscape:cx="682.13541"
     inkscape:cy="683.72918"
     inkscape:window-width="2560"
     inkscape:window-height="1566"
     inkscape:window-x="-11"
     inkscape:window-y="-11"
     inkscape:window-maximized="1"
     inkscape:current-layer="svg25">
    <inkscape:grid
       id="grid25"
       units="pt"
       originx="0"
       originy="0"
       spacingx="0.99999997"
       spacingy="0.99999997"
       empcolor="#0099e5"
       empopacity="0.30196078"
       color="#0099e5"
       opacity="0.14901961"
       empspacing="5"
       enabled="true"
       visible="true" />
  </sodipodi:namedview>
  <g
     transform="translate(0.000000,1024.000000) scale(0.100000,-0.100000)"
     fill="#000000"
     stroke="none"
     id="g25"
     style="fill:#22d3ee;fill-opacity:1">
    <path
       d="M4930 7659 c-380 -39 -709 -167 -1013 -392 -106 -78 -292 -260 -371 -362 -183 -236 -312 -514 -380 -818 -109 -483 -5 -1054 268 -1477 307 -476 788 -795 1346 -891 118 -20 501 -38 535 -25 12 4 -23 26 -122 76 -167 84 -283 169 -423 310 -310 310 -525 747 -594 1210 -39 257 -45 452 -21 650 65 535 266 977 595 1311 158 160 336 288 517 371 62 28 66 31 43 38 -34 11 -274 9 -380 -1z"
       id="path2"
       style="fill:#22d3ee;fill-opacity:1" />
    <path
       d="M5535 7580 c-171 -52 -273 -97 -381 -166 -30 -19 -58 -42 -61 -51 -10 -26 93 -215 153 -282 46 -51 65 -64 111 -77 65 -19 104 -13 150 22 83 63 182 287 222 500 9 45 8 46 -23 59 -59 24 -81 23 -171 -5z"
       id="path3"
       style="fill:#22d3ee;fill-opacity:1" />
    <path
       d="M5780 7534 c-6 -14 -10 -35 -10 -47 0 -47 -64 -247 -106 -331 -56 -111 -93 -159 -151 -193 -93 -54 -193 -29 -302 76 -48 46 -69 78 -115 174 l-56 117 -48 -35 c-26 -19 -56 -43 -66 -54 -17 -18 -16 -21 5 -63 88 -174 204 -303 334 -371 53 -27 70 -31 145 -31 73 -1 94 3 145 27 33 15 77 45 98 65 96 92 196 276 244 447 13 50 31 107 39 128 19 50 18 53 -13 65 -16 6 -52 20 -81 31 l-52 21 -10 -26z"
       id="path4"
       style="fill:#22d3ee;fill-opacity:1" />
    <path
       d="M5997 7463 c-3 -5 -17 -55 -33 -113 -72 -271 -189 -468 -340 -572 -144 -98 -336 -77 -501 55 -84 67 -141 139 -211 264 -25 46 -49 83 -53 83 -13 0 -99 -104 -99 -120 0 -25 112 -190 175 -258 197 -212 433 -294 641 -220 163 58 275 162 394 369 62 109 185 411 176 434 -3 10 -128 85 -141 85 -2 0 -6 -3 -8 -7z"
       id="path5"
       style="fill:#22d3ee;fill-opacity:1" />
    <path
       d="M6179 7318 c-50 -181 -171 -436 -259 -543 -113 -138 -211 -212 -333 -250 -92 -29 -198 -33 -294 -10 -75 18 -218 88 -290 142 -71 53 -162 159 -229 265 -31 48 -57 88 -59 88 -2 0 -24 -31 -50 -69 -31 -45 -44 -74 -39 -83 28 -47 162 -204 222 -260 257 -242 554 -315 829 -204 231 94 395 280 571 646 46 96 88 185 93 197 8 22 6 23 -123 107 l-27 17 -12 -43z"
       id="path6"
       style="fill:#22d3ee;fill-opacity:1" />
    <path
       d="M6369 7193 c-108 -284 -249 -524 -392 -667 -91 -91 -189 -151 -321 -199 -114 -42 -283 -49 -407 -18 -231 58 -465 229 -602 439 l-55 83 -20 -33 c-33 -53 -102 -195 -137 -283 l-33 -79 73 -51 c320 -220 537 -562 512 -804 -10 -89 -33 -141 -93 -209 -48 -53 -73 -71 -158 -112 -106 -51 -207 -83 -315 -101 -36 -5 -68 -12 -72 -14 -8 -5 18 -115 30 -128 13 -13 253 54 362 103 229 102 333 209 375 387 18 78 14 187 -11 273 -47 166 -43 219 22 291 65 72 93 80 282 84 131 2 183 7 246 24 166 44 347 164 476 315 89 103 212 300 302 483 l70 142 -53 48 c-29 26 -57 49 -61 51 -5 2 -14 -9 -20 -25z"
       id="path7"
       style="fill:#22d3ee;fill-opacity:1" />
    <path
       d="M6476 6948 c-221 -452 -457 -702 -762 -806 -82 -28 -213 -43 -348 -41 -98 3 -116 0 -154 -20 -46 -24 -77 -65 -86 -116 -4 -21 4 -73 25 -151 37 -142 42 -248 15 -339 -59 -199 -188 -320 -456 -429 -73 -30 -242 -76 -277 -76 -13 0 -26 -6 -29 -13 -8 -23 44 -163 110 -295 93 -185 187 -320 321 -460 127 -133 224 -211 337 -272 l74 -40 13 53 c19 78 49 153 98 242 173 315 482 483 775 421 124 -27 321 -137 406 -227 20 -21 42 -39 47 -39 6 0 29 19 51 43 225 237 397 605 456 977 8 55 13 175 13 340 0 241 -2 262 -28 385 -77 359 -247 687 -483 937 -25 27 -48 48 -52 48 -4 0 -34 -55 -66 -122z m74 -609 c48 -27 90 -92 90 -140 0 -53 -15 -88 -57 -131 l-37 -37 13 -83 c20 -137 23 -148 37 -148 7 0 32 -7 55 -16 116 -47 136 -212 34 -289 -30 -24 -48 -29 -102 -31 -70 -3 -77 -8 -112 -74 -18 -34 -18 -36 0 -70 21 -39 25 -119 8 -153 -45 -86 -159 -124 -235 -78 l-32 19 -88 -65 c-58 -42 -88 -70 -87 -81 2 -9 5 -35 9 -57 7 -50 -27 -120 -76 -152 -39 -27 -125 -31 -168 -9 -44 23 -81 69 -90 111 l-8 39 -141 29 -141 29 -44 -45 c-48 -48 -92 -63 -153 -51 -34 6 -35 5 -84 -71 l-50 -77 22 -30 c17 -23 22 -43 22 -87 -1 -74 -26 -119 -85 -148 -118 -60 -239 6 -247 135 -7 109 69 185 176 180 l55 -3 49 72 49 73 -27 46 c-22 37 -26 55 -22 86 11 81 96 158 176 158 69 0 140 -57 162 -129 l11 -36 141 -29 142 -28 25 30 c54 63 117 81 197 56 l52 -16 85 66 84 66 -1 53 c0 29 5 68 12 85 13 32 13 32 -61 115 -41 45 -91 103 -111 129 -36 44 -40 46 -70 37 -73 -21 -152 14 -186 83 -39 81 -23 149 49 211 38 32 50 37 95 37 29 0 66 -8 86 -18 l35 -18 148 115 147 115 -6 47 c-15 105 67 199 174 199 25 0 58 -9 81 -21z"
       id="path8"
       style="fill:#22d3ee;fill-opacity:1" />
    <path
       d="M6400 6260 c-27 -27 -35 -65 -20 -101 17 -40 46 -59 93 -59 53 0 87 35 87 90 0 58 -33 90 -95 90 -31 0 -51 -6 -65 -20z"
       id="path9"
       style="fill:#22d3ee;fill-opacity:1" />
    <path
       d="M6262 5981 c-55 -42 -125 -95 -156 -118 l-56 -43 7 -45 c4 -31 0 -59 -11 -90 l-18 -45 96 -114 c121 -143 117 -139 152 -126 16 6 49 10 73 8 44 -2 46 -1 74 46 l28 49 -20 48 c-12 26 -21 62 -21 80 0 46 36 116 71 136 17 10 27 24 25 33 -2 8 -12 59 -22 114 -13 69 -23 99 -34 103 -8 2 -32 12 -52 22 l-37 19 -99 -77z"
       id="path10"
       style="fill:#22d3ee;fill-opacity:1" />
    <path
       d="M5825 5815 c-30 -30 -34 -92 -7 -124 37 -46 125 -42 151 8 51 94 -70 191 -144 116z"
       id="path11"
       style="fill:#22d3ee;fill-opacity:1" />
    <path
       d="M6538 5714 c-33 -18 -48 -43 -48 -83 0 -43 9 -60 41 -76 66 -35 131 -7 145 63 8 41 -16 79 -61 98 -42 17 -43 17 -77 -2z"
       id="path12"
       style="fill:#22d3ee;fill-opacity:1" />
    <path
       d="M6267 5310 c-32 -26 -43 -80 -23 -119 17 -33 34 -41 81 -41 47 0 64 8 80 41 23 43 18 77 -14 110 -36 35 -86 39 -124 9z"
       id="path13"
       style="fill:#22d3ee;fill-opacity:1" />
    <path
       d="M5202 5103 c-18 -7 -42 -58 -42 -91 0 -72 112 -111 165 -57 57 56 10 156 -72 154 -21 0 -44 -3 -51 -6z"
       id="path14"
       style="fill:#22d3ee;fill-opacity:1" />
    <path
       d="M5829 4975 c-61 -34 -56 -135 8 -162 67 -27 133 11 133 78 0 73 -78 120 -141 84z"
       id="path15"
       style="fill:#22d3ee;fill-opacity:1" />
    <path
       d="M4918 4665 c-32 -18 -52 -72 -39 -106 23 -61 97 -86 144 -49 38 30 50 65 37 106 -20 58 -83 80 -142 49z"
       id="path16"
       style="fill:#22d3ee;fill-opacity:1" />
    <path
       d="M4363 6303 l-20 -67 96 -71 c355 -262 440 -619 178 -744 -66 -32 -181 -65 -259 -76 -54 -7 -55 -10 -37 -95 7 -32 16 -50 25 -50 8 0 57 9 110 21 240 52 399 147 455 272 19 43 23 69 23 149 l1 96 -54 106 c-71 140 -123 210 -250 336 -91 91 -217 190 -241 190 -4 0 -16 -30 -27 -67z"
       id="path17"
       style="fill:#22d3ee;fill-opacity:1" />
    <path
       d="M4326 6148 c-2 -7 -9 -40 -15 -73 -11 -60 -11 -60 16 -80 16 -10 59 -49 97 -85 112 -106 144 -205 91 -282 -27 -40 -82 -63 -177 -75 l-48 -6 0 -61 c0 -84 6 -90 71 -82 71 9 206 44 239 61 42 22 88 75 106 122 54 140 -93 390 -318 542 -51 35 -57 36 -62 19z"
       id="path18"
       style="fill:#22d3ee;fill-opacity:1" />
    <path
       d="M4286 5888 c-3 -29 -6 -106 -6 -171 l0 -118 63 7 c78 8 135 36 143 70 11 44 -24 112 -99 190 -38 41 -75 74 -82 74 -7 0 -15 -21 -19 -52z"
       id="path19"
       style="fill:#22d3ee;fill-opacity:1" />
    <path
       d="M5855 4541 c-125 -37 -212 -88 -300 -177 -109 -112 -188 -247 -238 -412 -25 -82 -25 -82 -5 -93 25 -13 130 -50 134 -46 1 1 9 32 18 68 18 78 71 198 120 271 102 155 259 248 416 248 124 0 276 -66 372 -162 32 -32 62 -58 67 -58 5 0 32 25 60 56 l52 57 -23 24 c-37 40 -176 142 -232 170 -134 68 -316 91 -441 54z"
       id="path20"
       style="fill:#22d3ee;fill-opacity:1" />
    <path
       d="M5923 4340 c-128 -26 -246 -126 -326 -279 -57 -107 -112 -262 -97 -271 18 -11 140 -32 154 -27 8 3 18 27 21 54 16 110 92 249 168 307 114 87 269 70 364 -38 27 -31 47 -45 55 -40 39 22 118 88 118 99 0 21 -80 88 -165 137 -103 60 -191 78 -292 58z"
       id="path21"
       style="fill:#22d3ee;fill-opacity:1" />
    <path
       d="M5900 4094 c-25 -14 -60 -45 -79 -70 -43 -57 -119 -244 -98 -244 8 0 203 73 252 95 73 32 235 127 235 137 0 13 -103 85 -139 97 -57 19 -121 13 -171 -15z"
       id="path22"
       style="fill:#22d3ee;fill-opacity:1" />
  </g>
  <g
     inkscape:groupmode="layer"
     id="layer1"
     inkscape:label="Layer 1"
     style="mix-blend-mode:color" />
  <path
     style="font-weight:bold;font-size:133.333px;font-family:Sans;-inkscape-font-specification:'Sans, Bold';white-space:pre;fill:#22d3ee"
     d="m 542.36177,1076.8449 h -69.9217 v -96.93985 h 24.99994 v 78.18995 h 44.92176 z m 86.58832,0 h -23.43744 v -8.0729 q -6.5104,4.9479 -11.91403,7.5521 -5.40363,2.539 -12.89059,2.539 -12.10935,0 -18.68485,-6.9661 -6.5104,-6.9661 -6.5104,-20.5729 v -47.591 h 23.56765 v 36.2629 q 0,5.5339 0.32552,9.2448 0.39062,3.6458 1.6927,6.0547 1.23698,2.4088 3.71093,3.5156 2.53906,1.1068 7.03123,1.1068 2.99479,0 6.64061,-1.1068 3.64582,-1.1068 7.03123,-3.2552 v -51.8228 h 23.43744 z m 95.57268,0 h -23.56765 v -36.2629 q 0,-4.4271 -0.45573,-8.7891 -0.45573,-4.427 -1.56249,-6.5104 -1.30208,-2.4088 -3.84114,-3.5156 -2.47395,-1.1067 -6.96613,-1.1067 -3.19009,0 -6.5104,1.0416 -3.2552,1.0417 -7.09633,3.3203 v 51.8228 h -23.43744 v -73.1118 h 23.43744 v 8.0729 q 6.24998,-4.8828 11.97913,-7.487 5.79426,-2.6041 12.82549,-2.6041 11.84893,0 18.48954,6.901 6.70571,6.901 6.70571,20.638 z m 65.82015,-19.0755 v -15.2343 q -4.7526,0.3906 -10.28644,1.1068 -5.53384,0.651 -8.39841,1.5625 -3.51562,1.1067 -5.40363,3.2552 -1.82292,2.0833 -1.82292,5.5338 0,2.2786 0.39063,3.7109 0.39062,1.4323 1.95312,2.7344 1.49739,1.3021 3.58072,1.9531 2.08333,0.586 6.5104,0.586 3.51561,0 7.09633,-1.4323 3.64583,-1.4323 6.3802,-3.7761 z m 0,11.3281 q -1.88802,1.4323 -4.68749,3.4505 -2.79947,2.0183 -5.27343,3.1901 -3.45051,1.5625 -7.16144,2.2787 -3.71092,0.7812 -8.138,0.7812 -10.41664,0 -17.44787,-6.4453 -7.03123,-6.4453 -7.03123,-16.4713 0,-8.0078 3.58072,-13.0859 3.58072,-5.0781 10.15622,-8.0078 6.5104,-2.9297 16.1458,-4.1666 9.63539,-1.237 19.98692,-1.8229 v -0.3907 q 0,-6.0546 -4.9479,-8.3333 -4.9479,-2.3437 -14.5833,-2.3437 -5.79425,0 -12.36976,2.0833 -6.5755,2.0182 -9.44008,3.125 h -2.14843 v -17.6432 q 3.71093,-0.9766 12.04424,-2.2786 8.39842,-1.3672 16.79683,-1.3672 19.98693,0 28.84108,6.1849 8.91924,6.1197 8.91924,19.2707 v 49.7395 h -23.24212 z m 131.83558,2.2136 q -6.5104,2.539 -17.25256,5.0781 -10.74216,2.4739 -21.41922,2.4739 -24.73952,0 -38.73688,-13.4114 -13.99736,-13.4765 -13.99736,-37.1744 0,-22.5911 14.12757,-36.39312 14.12757,-13.86715 39.38792,-13.86715 9.57029,0 18.22912,1.75781 8.65883,1.6927 19.27079,6.83592 v 22.72134 h -2.79948 q -1.82291,-1.3672 -5.33852,-3.8412 -3.51562,-2.539 -6.77082,-4.2968 -3.77603,-2.08337 -8.85414,-3.58077 -5.01301,-1.49739 -10.67706,-1.49739 -6.64061,0 -12.04424,1.95312 -5.40363,1.95314 -9.7005,5.98954 -4.10155,3.9063 -6.5104,9.9609 -2.34374,5.9896 -2.34374,13.8672 0,16.0807 8.52862,24.6093 8.52863,8.5286 25.19525,8.5286 1.43229,0 3.12499,-0.065 1.75781,-0.065 3.1901,-0.1953 v -19.0104 h -19.33589 v -18.2942 h 44.72645 z m 44.53115,5.5338 h -23.43744 v -73.1118 h 23.43744 z m 0.65104,-83.52843 h -24.73952 v -17.77339 h 24.73952 z m 85.02581,60.35143 q 0,11.3281 -10.1562,18.2942 -10.1562,6.901 -27.7994,6.901 -9.7656,0 -17.70829,-1.8229 -7.94269,-1.8229 -12.76039,-4.0364 v -19.2708 h 2.14844 q 1.7578,1.237 4.03644,2.7344 2.34375,1.4322 6.57551,3.1249 3.64579,1.4974 8.26819,2.6042 4.6224,1.0417 9.8958,1.0417 6.901,0 10.2214,-1.4974 3.3203,-1.5625 3.3203,-4.5573 0,-2.6693 -1.9532,-3.8411 -1.9531,-1.237 -7.4218,-2.3438 -2.6042,-0.5859 -7.0964,-1.237 -4.427,-0.7161 -8.0729,-1.6927 -9.96086,-2.6041 -14.77856,-8.0729 -4.8177,-5.5338 -4.8177,-13.7369 0,-10.5469 9.96092,-17.513 10.02604,-7.0312 27.34364,-7.0312 8.2031,0 15.6901,1.6927 7.5521,1.6276 11.7838,3.5156 v 18.4895 h -2.0182 q -5.2083,-3.5807 -11.914,-5.7942 -6.6406,-2.2787 -13.4766,-2.2787 -5.664,0 -9.5702,1.5625 -3.8412,1.5625 -3.8412,4.4271 0,2.6042 1.7578,3.9714 1.7578,1.3671 8.2682,2.7343 3.5808,0.7162 7.6823,1.4323 4.1667,0.6511 8.3333,1.6927 9.2448,2.4089 13.6719,7.6172 4.427,5.1432 4.427,12.8906 z"
     id="text25"
     transform="matrix(0.75,0,0,0.75,-61.360311,-62.11362)"
     aria-label="LunaGis" />
</svg>
