<?xml version="1.0" encoding="UTF-8" standalone="no"?>
<svg
   version="1.0"
   width="521pt"
   height="570pt"
   viewBox="-32.5 -20 521 570"
   preserveAspectRatio="xMidYMid"
   id="svg25"
   sodipodi:docname="LunaGis logo.svg"
   inkscape:version="1.4.2 (f4327f4, 2025-05-13)"
   xmlns:inkscape="http://www.inkscape.org/namespaces/inkscape"
   xmlns:sodipodi="http://sodipodi.sourceforge.net/DTD/sodipodi-0.dtd"
   xmlns="http://www.w3.org/2000/svg"
   xmlns:svg="http://www.w3.org/2000/svg">
  <defs
     id="defs25">
    <rect
       x="460.06952"
       y="955.20209"
       width="805.38727"
       height="289.00443"
       id="rect25" />
  </defs>
  <sodipodi:namedview
     id="namedview25"
     pagecolor="#18212f"
     bordercolor="#000000"
     borderopacity="0.25"
     inkscape:showpageshadow="2"
     inkscape:pageopacity="0.0"
     inkscape:pagecheckerboard="0"
     inkscape:deskcolor="#d1d1d1"
     inkscape:document-units="pt"
     showgrid="true"
     inkscape:zoom="0.94116211"
     inkscape:cx="306.53593"
     inkscape:cy="363.9118"
     inkscape:window-width="2560"
     inkscape:window-height="1566"
     inkscape:window-x="-11"
     inkscape:window-y="-11"
     inkscape:window-maximized="1"
     inkscape:current-layer="svg25">
    <inkscape:grid
       id="grid25"
       units="pt"
       originx="-282.09805"
       originy="-240.65993"
       spacingx="0.99999997"
       spacingy="0.99999997"
       empcolor="#0099e5"
       empopacity="0.30196078"
       color="#0099e5"
       opacity="0.14901961"
       empspacing="5"
       enabled="false"
       visible="true" />
  </sodipodi:namedview>
  <g
     transform="matrix(0.1,0,0,-0.1,-282.09805,783.34007)"
     fill="#000000"
     stroke="none"
     id="g25"
     style="fill:#22d3ee;fill-opacity:1">
    <path
       d="m 4930,7659 c -380,-39 -709,-167 -1013,-392 -106,-78 -292,-260 -371,-362 -183,-236 -312,-514 -380,-818 -109,-483 -5,-1054 268,-1477 307,-476 788,-795 1346,-891 118,-20 501,-38 535,-25 12,4 -23,26 -122,76 -167,84 -283,169 -423,310 -310,310 -525,747 -594,1210 -39,257 -45,452 -21,650 65,535 266,977 595,1311 158,160 336,288 517,371 62,28 66,31 43,38 -34,11 -274,9 -380,-1 z"
       id="path2"
       style="fill:#22d3ee;fill-opacity:1" />
    <path
       d="m 5535,7580 c -171,-52 -273,-97 -381,-166 -30,-19 -58,-42 -61,-51 -10,-26 93,-215 153,-282 46,-51 65,-64 111,-77 65,-19 104,-13 150,22 83,63 182,287 222,500 9,45 8,46 -23,59 -59,24 -81,23 -171,-5 z"
       id="path3"
       style="fill:#22d3ee;fill-opacity:1" />
    <path
       d="m 5780,7534 c -6,-14 -10,-35 -10,-47 0,-47 -64,-247 -106,-331 -56,-111 -93,-159 -151,-193 -93,-54 -193,-29 -302,76 -48,46 -69,78 -115,174 l -56,117 -48,-35 c -26,-19 -56,-43 -66,-54 -17,-18 -16,-21 5,-63 88,-174 204,-303 334,-371 53,-27 70,-31 145,-31 73,-1 94,3 145,27 33,15 77,45 98,65 96,92 196,276 244,447 13,50 31,107 39,128 19,50 18,53 -13,65 -16,6 -52,20 -81,31 l -52,21 z"
       id="path4"
       style="fill:#22d3ee;fill-opacity:1" />
    <path
       d="m 5997,7463 c -3,-5 -17,-55 -33,-113 -72,-271 -189,-468 -340,-572 -144,-98 -336,-77 -501,55 -84,67 -141,139 -211,264 -25,46 -49,83 -53,83 -13,0 -99,-104 -99,-120 0,-25 112,-190 175,-258 197,-212 433,-294 641,-220 163,58 275,162 394,369 62,109 185,411 176,434 -3,10 -128,85 -141,85 -2,0 -6,-3 -8,-7 z"
       id="path5"
       style="fill:#22d3ee;fill-opacity:1" />
    <path
       d="m 6179,7318 c -50,-181 -171,-436 -259,-543 -113,-138 -211,-212 -333,-250 -92,-29 -198,-33 -294,-10 -75,18 -218,88 -290,142 -71,53 -162,159 -229,265 -31,48 -57,88 -59,88 -2,0 -24,-31 -50,-69 -31,-45 -44,-74 -39,-83 28,-47 162,-204 222,-260 257,-242 554,-315 829,-204 231,94 395,280 571,646 46,96 88,185 93,197 8,22 6,23 -123,107 l -27,17 z"
       id="path6"
       style="fill:#22d3ee;fill-opacity:1" />
    <path
       d="m 6369,7193 c -108,-284 -249,-524 -392,-667 -91,-91 -189,-151 -321,-199 -114,-42 -283,-49 -407,-18 -231,58 -465,229 -602,439 l -55,83 -20,-33 c -33,-53 -102,-195 -137,-283 l -33,-79 73,-51 c 320,-220 537,-562 512,-804 -10,-89 -33,-141 -93,-209 -48,-53 -73,-71 -158,-112 -106,-51 -207,-83 -315,-101 -36,-5 -68,-12 -72,-14 -8,-5 18,-115 30,-128 13,-13 253,54 362,103 229,102 333,209 375,387 18,78 14,187 -11,273 -47,166 -43,219 22,291 65,72 93,80 282,84 131,2 183,7 246,24 166,44 347,164 476,315 89,103 212,300 302,483 l 70,142 -53,48 c -29,26 -57,49 -61,51 -5,2 -14,-9 -20,-25 z"
       id="path7"
       style="fill:#22d3ee;fill-opacity:1" />
    <path
       d="m 6476,6948 c -221,-452 -457,-702 -762,-806 -82,-28 -213,-43 -348,-41 -98,3 -116,0 -154,-20 -46,-24 -77,-65 -86,-116 -4,-21 4,-73 25,-151 37,-142 42,-248 15,-339 -59,-199 -188,-320 -456,-429 -73,-30 -242,-76 -277,-76 -13,0 -26,-6 -29,-13 -8,-23 44,-163 110,-295 93,-185 187,-320 321,-460 127,-133 224,-211 337,-272 l 74,-40 13,53 c 19,78 49,153 98,242 173,315 482,483 775,421 124,-27 321,-137 406,-227 20,-21 42,-39 47,-39 6,0 29,19 51,43 225,237 397,605 456,977 8,55 13,175 13,340 0,241 -2,262 -28,385 -77,359 -247,687 -483,937 -25,27 -48,48 -52,48 -4,0 -34,-55 -66,-122 z m 74,-609 c 48,-27 90,-92 90,-140 0,-53 -15,-88 -57,-131 l -37,-37 13,-83 c 20,-137 23,-148 37,-148 7,0 32,-7 55,-16 116,-47 136,-212 34,-289 -30,-24 -48,-29 -102,-31 -70,-3 -77,-8 -112,-74 -18,-34 -18,-36 0,-70 21,-39 25,-119 8,-153 -45,-86 -159,-124 -235,-78 l -32,19 -88,-65 c -58,-42 -88,-70 -87,-81 2,-9 5,-35 9,-57 7,-50 -27,-120 -76,-152 -39,-27 -125,-31 -168,-9 -44,23 -81,69 -90,111 l -8,39 -141,29 -141,29 -44,-45 c -48,-48 -92,-63 -153,-51 -34,6 -35,5 -84,-71 l -50,-77 22,-30 c 17,-23 22,-43 22,-87 -1,-74 -26,-119 -85,-148 -118,-60 -239,6 -247,135 -7,109 69,185 176,180 l 55,-3 49,72 49,73 -27,46 c -22,37 -26,55 -22,86 11,81 96,158 176,158 69,0 140,-57 162,-129 l 11,-36 141,-29 142,-28 25,30 c 54,63 117,81 197,56 l 52,-16 85,66 84,66 -1,53 c 0,29 5,68 12,85 13,32 13,32 -61,115 -41,45 -91,103 -111,129 -36,44 -40,46 -70,37 -73,-21 -152,14 -186,83 -39,81 -23,149 49,211 38,32 50,37 95,37 29,0 66,-8 86,-18 l 35,-18 148,115 147,115 -6,47 c -15,105 67,199 174,199 25,0 58,-9 81,-21 z"
       id="path8"
       style="fill:#22d3ee;fill-opacity:1" />
    <path
       d="m 6400,6260 c -27,-27 -35,-65 -20,-101 17,-40 46,-59 93,-59 53,0 87,35 87,90 0,58 -33,90 -95,90 -31,0 -51,-6 -65,-20 z"
       id="path9"
       style="fill:#22d3ee;fill-opacity:1" />
    <path
       d="m 6262,5981 c -55,-42 -125,-95 -156,-118 l -56,-43 7,-45 c 4,-31 0,-59 -11,-90 l -18,-45 96,-114 c 121,-143 117,-139 152,-126 16,6 49,10 73,8 44,-2 46,-1 74,46 l 28,49 -20,48 c -12,26 -21,62 -21,80 0,46 36,116 71,136 17,10 27,24 25,33 -2,8 -12,59 -22,114 -13,69 -23,99 -34,103 -8,2 -32,12 -52,22 l -37,19 z"
       id="path10"
       style="fill:#22d3ee;fill-opacity:1" />
    <path
       d="m 5825,5815 c -30,-30 -34,-92 -7,-124 37,-46 125,-42 151,8 51,94 -70,191 -144,116 z"
       id="path11"
       style="fill:#22d3ee;fill-opacity:1" />
    <path
       d="m 6538,5714 c -33,-18 -48,-43 -48,-83 0,-43 9,-60 41,-76 66,-35 131,-7 145,63 8,41 -16,79 -61,98 -42,17 -43,17 -77,-2 z"
       id="path12"
       style="fill:#22d3ee;fill-opacity:1" />
    <path
       d="m 6267,5310 c -32,-26 -43,-80 -23,-119 17,-33 34,-41 81,-41 47,0 64,8 80,41 23,43 18,77 -14,110 -36,35 -86,39 -124,9 z"
       id="path13"
       style="fill:#22d3ee;fill-opacity:1" />
    <path
       d="m 5202,5103 c -18,-7 -42,-58 -42,-91 0,-72 112,-111 165,-57 57,56 10,156 -72,154 -21,0 -44,-3 -51,-6 z"
       id="path14"
       style="fill:#22d3ee;fill-opacity:1" />
    <path
       d="m 5829,4975 c -61,-34 -56,-135 8,-162 67,-27 133,11 133,78 0,73 -78,120 -141,84 z"
       id="path15"
       style="fill:#22d3ee;fill-opacity:1" />
    <path
       d="m 4918,4665 c -32,-18 -52,-72 -39,-106 23,-61 97,-86 144,-49 38,30 50,65 37,106 -20,58 -83,80 -142,49 z"
       id="path16"
       style="fill:#22d3ee;fill-opacity:1" />
    <path
       d="m 4363,6303 -20,-67 96,-71 c 355,-262 440,-619 178,-744 -66,-32 -181,-65 -259,-76 -54,-7 -55,-10 -37,-95 7,-32 16,-50 25,-50 8,0 57,9 110,21 240,52 399,147 455,272 19,43 23,69 23,149 l 1,96 -54,106 c -71,140 -123,210 -250,336 -91,91 -217,190 -241,190 -4,0 -16,-30 -27,-67 z"
       id="path17"
       style="fill:#22d3ee;fill-opacity:1" />
    <path
       d="m 4326,6148 c -2,-7 -9,-40 -15,-73 -11,-60 -11,-60 16,-80 16,-10 59,-49 97,-85 112,-106 144,-205 91,-282 -27,-40 -82,-63 -177,-75 l -48,-6 v -61 c 0,-84 6,-90 71,-82 71,9 206,44 239,61 42,22 88,75 106,122 54,140 -93,390 -318,542 -51,35 -57,36 -62,19 z"
       id="path18"
       style="fill:#22d3ee;fill-opacity:1" />
    <path
       d="m 4286,5888 c -3,-29 -6,-106 -6,-171 v -118 l 63,7 c 78,8 135,36 143,70 11,44 -24,112 -99,190 -38,41 -75,74 -82,74 -7,0 -15,-21 -19,-52 z"
       id="path19"
       style="fill:#22d3ee;fill-opacity:1" />
    <path
       d="m 5855,4541 c -125,-37 -212,-88 -300,-177 -109,-112 -188,-247 -238,-412 -25,-82 -25,-82 -5,-93 25,-13 130,-50 134,-46 1,1 9,32 18,68 18,78 71,198 120,271 102,155 259,248 416,248 124,0 276,-66 372,-162 32,-32 62,-58 67,-58 5,0 32,25 60,56 l 52,57 -23,24 c -37,40 -176,142 -232,170 -134,68 -316,91 -441,54 z"
       id="path20"
       style="fill:#22d3ee;fill-opacity:1" />
    <path
       d="m 5923,4340 c -128,-26 -246,-126 -326,-279 -57,-107 -112,-262 -97,-271 18,-11 140,-32 154,-27 8,3 18,27 21,54 16,110 92,249 168,307 114,87 269,70 364,-38 27,-31 47,-45 55,-40 39,22 118,88 118,99 0,21 -80,88 -165,137 -103,60 -191,78 -292,58 z"
       id="path21"
       style="fill:#22d3ee;fill-opacity:1" />
    <path
       d="m 5900,4094 c -25,-14 -60,-45 -79,-70 -43,-57 -119,-244 -98,-244 8,0 203,73 252,95 73,32 235,127 235,137 0,13 -103,85 -139,97 -57,19 -121,13 -171,-15 z"
       id="path22"
       style="fill:#22d3ee;fill-opacity:1" />
  </g>
  <g
     inkscape:groupmode="layer"
     id="layer1"
     inkscape:label="Layer 1"
     style="mix-blend-mode:color"
     transform="translate(-282.09805,-240.65993)" />
  <path
     style="font-weight:bold;font-size:133.333px;font-family:Sans;-inkscape-font-specification:'Sans, Bold';white-space:pre;fill:#22d3ee;stroke-width:0.75"
     d="m 63.312967,525.86012 h -52.44128 v -72.70488 h 18.74996 v 58.64246 h 33.69132 z m 64.941243,0 h -17.57808 v -6.05467 c -3.25521,2.47395 -6.23371,4.362 -8.93553,5.66408 -2.701813,1.26952 -5.924463,1.90425 -9.667943,1.90425 -6.05467,0 -10.72588,-1.7415 -14.01364,-5.22458 -3.2552,-3.48308 -4.8828,-8.62627 -4.8828,-15.42967 v -35.69325 h 17.67574 v 27.19717 c 0,2.76698 0.0814,5.07818 0.24414,6.9336 0.19531,1.82287 0.61849,3.3366 1.26953,4.54103 0.61848,1.20442 1.54622,2.08327 2.78319,2.63669 1.26954,0.55343 3.02734,0.8301 5.273433,0.8301 1.49739,0 3.15754,-0.27667 4.98045,-0.8301 1.82292,-0.55342 3.58072,-1.36717 5.27343,-2.4414 v -38.8671 h 17.57808 z m 71.67951,0 h -17.67574 v -27.19717 c 0,-2.21355 -0.11393,-4.41083 -0.3418,-6.59183 -0.22786,-2.21347 -0.61849,-3.84112 -1.17187,-4.88279 -0.65103,-1.20443 -1.61132,-2.08328 -2.88085,-2.6367 -1.23698,-0.55335 -2.97851,-0.83003 -5.2246,-0.83003 -1.59505,0 -3.22264,0.2604 -4.8828,0.7812 -1.6276,0.52088 -3.40168,1.3509 -5.32225,2.49023 v 38.8671 h -17.57808 v -54.83385 h 17.57808 v 6.05467 c 3.12499,-2.4414 6.11978,-4.31317 8.98435,-5.61525 2.89713,-1.30207 6.1035,-1.95307 9.61912,-1.95307 5.92447,0 10.54685,1.72522 13.86715,5.17575 3.35286,3.45052 5.02929,8.61 5.02929,15.4785 z m 49.36511,-14.30662 v -11.42573 c -2.3763,0.1953 -4.94791,0.47198 -7.71483,0.8301 -2.76692,0.3255 -4.86653,0.7161 -6.29881,1.17188 -1.75781,0.55335 -3.10872,1.36717 -4.05272,2.4414 -0.91146,1.04167 -1.36719,2.42512 -1.36719,4.15035 0,1.13932 0.0977,2.067 0.29297,2.78317 0.19531,0.71618 0.68359,1.39973 1.46484,2.05081 0.7487,0.65107 1.64387,1.13932 2.68554,1.46482 1.04167,0.29302 2.66927,0.4395 4.8828,0.4395 1.75781,0 3.53189,-0.35805 5.32225,-1.07422 1.82291,-0.71618 3.41797,-1.6602 4.78515,-2.83208 z m 0,8.49607 c -0.94401,0.71618 -2.11589,1.57875 -3.51562,2.58788 -1.39973,1.00912 -2.71809,1.80667 -3.95507,2.39257 -1.72526,0.78128 -3.51562,1.3509 -5.37108,1.70903 -1.85546,0.3906 -3.88996,0.5859 -6.1035,0.5859 -5.20832,0 -9.57029,-1.6113 -13.0859,-4.83398 -3.51562,-3.22267 -5.27343,-7.34047 -5.27343,-12.35347 0,-4.00388 0.89518,-7.27538 2.68554,-9.81443 1.79037,-2.53905 4.32942,-4.54102 7.61717,-6.00585 3.2552,-1.46482 7.29165,-2.5065 12.10935,-3.12495 4.81769,-0.61852 9.81442,-1.07422 14.99019,-1.36717 v -0.29303 c 0,-3.0273 -1.23698,-5.11065 -3.71093,-6.24997 -2.47395,-1.17188 -6.11977,-1.75778 -10.93747,-1.75778 -2.89712,0 -5.98957,0.5208 -9.27732,1.56248 -3.28775,1.00912 -5.64777,1.79032 -7.08006,2.34375 h -1.61132 v -13.2324 c 1.85546,-0.48833 4.86652,-1.05795 9.03318,-1.70895 4.19921,-0.68363 8.39841,-1.0254 12.59762,-1.0254 9.99346,0 17.20373,1.5462 21.63081,4.63867 4.45962,3.05985 6.68943,7.87755 6.68943,14.45303 v 37.30462 h -17.43159 z m 98.87668,1.6602 c -3.2552,1.26953 -7.56834,2.53905 -12.93942,3.80858 -5.37108,1.23697 -10.72588,1.85542 -16.06441,1.85542 -12.36976,0 -22.05398,-3.35287 -29.05266,-10.05855 -6.99868,-6.73822 -10.49802,-16.03185 -10.49802,-27.8808 0,-11.29552 3.53189,-20.39385 10.59568,-27.29484 7.06378,-6.93357 16.91076,-10.40036 29.54094,-10.40036 4.78514,0 9.34242,0.43946 13.67184,1.31836 4.32941,0.84635 9.14711,2.55533 14.45309,5.12694 v 17.041 h -2.09961 c -0.91145,-0.68362 -2.24609,-1.64392 -4.00389,-2.8809 -1.75781,-1.26952 -3.45052,-2.34367 -5.07812,-3.2226 -1.88801,-1.04168 -4.10154,-1.93687 -6.6406,-2.68557 -2.50651,-0.7487 -5.17577,-1.12305 -8.0078,-1.12305 -3.3203,0 -6.33136,0.48828 -9.03318,1.46484 -2.70181,0.97657 -5.12694,2.47398 -7.27537,4.49216 -2.05078,1.95315 -3.67838,4.44337 -4.8828,7.47068 -1.17187,2.99482 -1.75781,6.46162 -1.75781,10.40039 0,8.04038 2.13216,14.1927 6.39647,18.45698 4.26431,4.26427 10.56313,6.39645 18.89644,6.39645 0.71614,0 1.49739,-0.0165 2.34374,-0.0487 0.8789,-0.0322 1.67643,-0.0813 2.39257,-0.14648 v -14.25779 h -14.50191 v -13.72065 h 33.54483 z m 33.39837,4.15035 H 363.9958 v -54.83385 h 17.57808 z m 0.48828,-62.64632 h -18.55464 v -13.33004 h 18.55464 z m 63.76935,45.26357 c 0,5.66408 -2.53905,10.23758 -7.61715,13.72066 -5.0781,3.45052 -12.02797,5.17575 -20.84955,5.17575 -4.8828,0 -9.3099,-0.4557 -13.28121,-1.36718 -3.97135,-0.91147 -7.16145,-1.92052 -9.5703,-3.0273 v -14.4531 h 1.61133 c 0.87891,0.61853 1.88802,1.30208 3.02733,2.0508 1.17188,0.7161 2.81576,1.4973 4.93164,2.34368 1.82289,0.74872 3.88994,1.39972 6.20114,1.95315 2.3112,0.52087 4.78515,0.78127 7.42185,0.78127 3.45052,0 6.00585,-0.37432 7.66605,-1.12305 1.66012,-0.78127 2.49022,-1.9206 2.49022,-3.41797 0,-1.33463 -0.48832,-2.29493 -1.4649,-2.88083 -0.97657,-0.61852 -2.832,-1.20442 -5.56635,-1.75785 -1.30207,-0.29295 -3.0762,-0.60217 -5.3223,-0.92775 -2.21347,-0.35805 -4.23172,-0.7812 -6.05467,-1.26952 -4.98043,-1.30208 -8.67507,-3.32025 -11.08392,-6.05468 -2.40885,-2.7669 -3.61328,-6.20115 -3.61328,-10.30267 0,-5.27348 2.49024,-9.65168 7.47069,-13.13475 5.01303,-3.51563 11.84891,-5.2734 20.50773,-5.2734 4.10153,0 8.0241,0.42315 11.76758,1.26952 3.77602,0.81382 6.72202,1.69268 8.83785,2.6367 v 13.86712 h -1.51365 c -2.60415,-1.79032 -5.58263,-3.23887 -8.9355,-4.34565 -3.32033,-1.13932 -6.68948,-1.70902 -10.10745,-1.70902 -2.832,0 -5.22458,0.3906 -7.17765,1.17187 -1.9206,0.78128 -2.8809,1.88805 -2.8809,3.32033 0,1.30208 0.43942,2.29492 1.31835,2.97855 0.87892,0.68355 2.94592,1.3671 6.20115,2.05072 1.7904,0.35813 3.711,0.71618 5.76172,1.07423 2.08335,0.32557 4.1667,0.74872 6.24998,1.26952 4.6224,1.20443 8.04037,3.10875 10.25392,5.7129 2.21348,2.5716 3.32025,5.79428 3.32025,9.66795 z"
     id="text25"
     aria-label="LunaGis"
     sodipodi:nodetypes="cccccccccccscsccscccssccccccscccsccccccccscsccccccssccscccsccsssscscscscccccscscccccscscscccccccssccssscccccccccccccccccscssccccccscscccccscscccccscssccccs" />
  <rect
     style="fill:none;fill-opacity:1;stroke-width:0.769597"
     id="rect1"
     width="521"
     height="570.57123"
     x="-32.5"
     y="-18.687937"
     ry="0"
     rx="57.375851" />
</svg>
